<?xml version="1.0" encoding="UTF-8"?>
<svg xmlns="http://www.w3.org/2000/svg" xmlns:xlink="http://www.w3.org/1999/xlink" width="25px" height="25px" viewBox="0 0 25 25" version="1.1">
<g id="surface1">
<path style=" stroke:none;fill-rule:evenodd;fill:rgb(0%,0%,0%);fill-opacity:1;" d="M 2.082031 2.082031 L 22.917969 2.082031 L 22.917969 22.917969 L 2.082031 22.917969 Z M 2.082031 2.082031 "/>
<path style=" stroke:none;fill-rule:evenodd;fill:rgb(100%,100%,100%);fill-opacity:1;" d="M 19.378906 6.714844 L 15.523438 6.714844 L 12.785156 13.613281 L 9.667969 6.714844 L 5.554688 6.714844 L 5.554688 7.058594 L 7.003906 8.832031 L 6.984375 15.675781 L 5.550781 17.632812 L 5.554688 17.957031 L 9.601562 17.957031 L 9.613281 17.65625 L 7.917969 15.675781 L 7.960938 10.136719 L 11.539062 17.957031 L 11.96875 17.957031 L 15.144531 9.949219 L 15.144531 16.460938 L 13.84375 17.691406 L 13.84375 17.957031 L 19.378906 17.957031 L 19.378906 17.640625 L 18.109375 16.4375 L 18.089844 8.160156 L 19.378906 7.0625 Z M 19.378906 6.714844 "/>
</g>
</svg>
