<?xml version="1.0" encoding="UTF-8"?>
<svg xmlns="http://www.w3.org/2000/svg" xmlns:xlink="http://www.w3.org/1999/xlink" width="30px" height="30px" viewBox="0 0 30 30" version="1.1">
<g id="surface1">
<path style=" stroke:none;fill-rule:evenodd;fill:rgb(0%,0%,0%);fill-opacity:1;" d="M 2.5 2.5 L 27.5 2.5 L 27.5 27.5 L 2.5 27.5 Z M 2.5 2.5 "/>
<path style=" stroke:none;fill-rule:evenodd;fill:rgb(100%,100%,100%);fill-opacity:1;" d="M 23.253906 8.058594 L 18.628906 8.058594 L 15.339844 16.335938 L 11.601562 8.058594 L 6.664062 8.058594 L 6.664062 8.472656 L 8.40625 10.597656 L 8.382812 18.808594 L 6.660156 21.15625 L 6.664062 21.546875 L 11.523438 21.546875 L 11.535156 21.1875 L 9.5 18.808594 L 9.554688 12.164062 L 13.84375 21.546875 L 14.363281 21.546875 L 18.171875 11.941406 L 18.171875 19.753906 L 16.609375 21.230469 L 16.609375 21.546875 L 23.253906 21.546875 L 23.253906 21.167969 L 21.730469 19.726562 L 21.710938 9.792969 L 23.253906 8.472656 Z M 23.253906 8.058594 "/>
</g>
</svg>
