<?xml version="1.0" encoding="UTF-8"?>
<svg xmlns="http://www.w3.org/2000/svg" xmlns:xlink="http://www.w3.org/1999/xlink" width="40px" height="40px" viewBox="0 0 40 40" version="1.1">
<g id="surface1">
<path style=" stroke:none;fill-rule:evenodd;fill:rgb(0%,0%,0%);fill-opacity:1;" d="M 3.332031 3.332031 L 36.667969 3.332031 L 36.667969 36.667969 L 3.332031 36.667969 Z M 3.332031 3.332031 "/>
<path style=" stroke:none;fill-rule:evenodd;fill:rgb(100%,100%,100%);fill-opacity:1;" d="M 31.003906 10.746094 L 24.839844 10.746094 L 20.453125 21.78125 L 15.472656 10.746094 L 8.886719 10.746094 L 8.886719 11.296875 L 11.207031 14.128906 L 11.175781 25.078125 L 8.882812 28.210938 L 8.886719 28.730469 L 15.363281 28.730469 L 15.378906 28.253906 L 12.667969 25.078125 L 12.738281 16.21875 L 18.460938 28.730469 L 19.148438 28.730469 L 24.230469 15.921875 L 24.230469 26.335938 L 22.148438 28.308594 L 22.148438 28.730469 L 31.003906 28.730469 L 31.003906 28.226562 L 28.972656 26.300781 L 28.945312 13.054688 L 31.003906 11.296875 Z M 31.003906 10.746094 "/>
</g>
</svg>
