<?xml version="1.0" encoding="UTF-8"?>
<svg xmlns="http://www.w3.org/2000/svg" xmlns:xlink="http://www.w3.org/1999/xlink" width="10px" height="10px" viewBox="0 0 10 10" version="1.1">
<g id="surface1">
<path style=" stroke:none;fill-rule:evenodd;fill:rgb(0%,0%,0%);fill-opacity:1;" d="M 0.832031 0.832031 L 9.167969 0.832031 L 9.167969 9.167969 L 0.832031 9.167969 Z M 0.832031 0.832031 "/>
<path style=" stroke:none;fill-rule:evenodd;fill:rgb(100%,100%,100%);fill-opacity:1;" d="M 7.75 2.6875 L 6.210938 2.6875 L 5.113281 5.445312 L 3.867188 2.6875 L 2.222656 2.6875 L 2.222656 2.824219 L 2.800781 3.53125 L 2.792969 6.269531 L 2.21875 7.050781 L 2.222656 7.183594 L 3.839844 7.183594 L 3.84375 7.0625 L 3.167969 6.269531 L 3.183594 4.054688 L 4.613281 7.183594 L 4.789062 7.183594 L 6.058594 3.980469 L 6.058594 6.585938 L 5.535156 7.078125 L 5.535156 7.183594 L 7.75 7.183594 L 7.75 7.054688 L 7.242188 6.574219 L 7.238281 3.265625 L 7.75 2.824219 Z M 7.75 2.6875 "/>
</g>
</svg>
