<?xml version="1.0" encoding="UTF-8"?>
<svg xmlns="http://www.w3.org/2000/svg" xmlns:xlink="http://www.w3.org/1999/xlink" width="37px" height="37px" viewBox="0 0 37 37" version="1.1">
<g id="surface1">
<path style=" stroke:none;fill-rule:evenodd;fill:rgb(0%,0%,0%);fill-opacity:1;" d="M 3.082031 3.082031 L 33.917969 3.082031 L 33.917969 33.917969 L 3.082031 33.917969 Z M 3.082031 3.082031 "/>
<path style=" stroke:none;fill-rule:evenodd;fill:rgb(100%,100%,100%);fill-opacity:1;" d="M 28.679688 9.941406 L 22.976562 9.941406 L 18.921875 20.148438 L 14.308594 9.941406 L 8.222656 9.941406 L 8.222656 10.449219 L 10.367188 13.070312 L 10.335938 23.199219 L 8.214844 26.09375 L 8.222656 26.574219 L 14.210938 26.574219 L 14.226562 26.132812 L 11.714844 23.199219 L 11.78125 15.003906 L 17.074219 26.574219 L 17.714844 26.574219 L 22.414062 14.726562 L 22.414062 24.363281 L 20.488281 26.183594 L 20.488281 26.574219 L 28.679688 26.574219 L 28.679688 26.109375 L 26.800781 24.328125 L 26.773438 12.078125 L 28.679688 10.449219 Z M 28.679688 9.941406 "/>
</g>
</svg>
